<svg width="20" height="25" viewBox="0 0 20 25" fill="none" xmlns="http://www.w3.org/2000/svg">
<path d="M5.90625 19.6875H14.0938C14.3646 19.6875 14.5885 19.599 14.7656 19.4219C14.9427 19.2448 15.0312 19.0208 15.0312 18.75C15.0312 18.4792 14.9427 18.2552 14.7656 18.0781C14.5885 17.901 14.3646 17.8125 14.0938 17.8125H5.90625C5.63542 17.8125 5.41146 17.901 5.23438 18.0781C5.05729 18.2552 4.96875 18.4792 4.96875 18.75C4.96875 19.0208 5.05729 19.2448 5.23438 19.4219C5.41146 19.599 5.63542 19.6875 5.90625 19.6875ZM5.90625 14.375H14.0938C14.3646 14.375 14.5885 14.2865 14.7656 14.1094C14.9427 13.9323 15.0312 13.7083 15.0312 13.4375C15.0312 13.1667 14.9427 12.9427 14.7656 12.7656C14.5885 12.5885 14.3646 12.5 14.0938 12.5H5.90625C5.63542 12.5 5.41146 12.5885 5.23438 12.7656C5.05729 12.9427 4.96875 13.1667 4.96875 13.4375C4.96875 13.7083 5.05729 13.9323 5.23438 14.1094C5.41146 14.2865 5.63542 14.375 5.90625 14.375ZM1.875 25C1.375 25 0.9375 24.8125 0.5625 24.4375C0.1875 24.0625 0 23.625 0 23.125V1.875C0 1.375 0.1875 0.9375 0.5625 0.5625C0.9375 0.1875 1.375 0 1.875 0H12.375C12.625 0 12.8698 0.0520833 13.1094 0.15625C13.349 0.260417 13.5521 0.395833 13.7188 0.5625L19.4375 6.28125C19.6042 6.44792 19.7396 6.65104 19.8438 6.89062C19.9479 7.13021 20 7.375 20 7.625V23.125C20 23.625 19.8125 24.0625 19.4375 24.4375C19.0625 24.8125 18.625 25 18.125 25H1.875ZM12.2188 6.75C12.2188 7.02083 12.3073 7.24479 12.4844 7.42188C12.6615 7.59896 12.8854 7.6875 13.1562 7.6875H18.125L12.2188 1.875V6.75Z" fill="#363636"/>
</svg>
