<svg width="25" height="25" viewBox="0 0 25 25" fill="none" xmlns="http://www.w3.org/2000/svg">
<path d="M22.7362 25C20.0022 25 17.2791 24.3265 14.5669 22.9796C11.8548 21.6327 9.42148 19.8861 7.26706 17.7398C5.11264 15.5935 3.36286 13.1516 2.01772 10.4139C0.672572 7.6763 0 4.96058 0 2.26675C0 1.65353 0.218723 1.12243 0.656168 0.673456C1.09361 0.224485 1.62948 0 2.26378 0H6.69291C7.39283 0 7.95604 0.175208 8.38255 0.525624C8.80906 0.87604 9.08793 1.39071 9.21916 2.06965L10.105 5.55191C10.1925 6.16513 10.1706 6.68528 10.0394 7.11235C9.90814 7.53942 9.66754 7.90626 9.31758 8.21288L5.93832 11.3009C7.03193 13.0311 8.22397 14.5258 9.51444 15.7852C10.8049 17.0445 12.2375 18.1231 13.8123 19.021L17.0604 15.7687C17.4322 15.3745 17.8478 15.1007 18.3071 14.9474C18.7664 14.7941 19.2804 14.7832 19.8491 14.9146L22.9331 15.6702C23.6111 15.8454 24.1251 16.1575 24.4751 16.6064C24.825 17.0554 25 17.6084 25 18.2654V22.7004C25 23.3574 24.7813 23.9049 24.3438 24.343C23.9064 24.781 23.3705 25 22.7362 25Z" fill="#363636"/>
</svg>
