<svg width="25" height="25" viewBox="0 0 25 25" fill="none" xmlns="http://www.w3.org/2000/svg">
<path fill-rule="evenodd" clip-rule="evenodd" d="M13.7627 0.563251C13.0653 -0.18775 11.9347 -0.18775 11.2373 0.563251L0.523024 12.1017C-0.174341 12.8527 -0.174341 14.0703 0.523024 14.8214C1.22039 15.5724 2.35104 15.5724 3.04842 14.8214L3.57143 14.2581V23.0769C3.57143 24.139 4.37094 25 5.35715 25H10.7143V19.2308C10.7143 18.1687 11.5138 17.3077 12.5 17.3077C13.4862 17.3077 14.2857 18.1687 14.2857 19.2308V25H19.6429C20.6291 25 21.4286 24.139 21.4286 23.0769V14.2581L21.9516 14.8214C22.649 15.5724 23.7797 15.5724 24.477 14.8214C25.1743 14.0703 25.1743 12.8527 24.477 12.1017L13.7627 0.563251Z" fill="#363636"/>
</svg>
