<svg width="28" height="28" viewBox="0 0 28 28" fill="none" xmlns="http://www.w3.org/2000/svg">
<path fill-rule="evenodd" clip-rule="evenodd" d="M28 14C28 21.732 21.732 28 14 28C6.26801 28 0 21.732 0 14C0 6.26801 6.26801 0 14 0C21.732 0 28 6.26801 28 14ZM8.06066 17.1318C7.47487 16.546 7.47487 15.5963 8.06066 15.0105L12.4801 10.5911C13.3171 9.75405 14.6496 9.71438 15.5336 10.4721C15.6587 10.558 15.7778 10.6565 15.8891 10.7677L20.1317 15.0104C20.7175 15.5962 20.7175 16.5459 20.1317 17.1317C19.5459 17.7175 18.5962 17.7175 18.0104 17.1317L14.0962 13.2176L10.182 17.1318C9.59619 17.7176 8.64645 17.7176 8.06066 17.1318Z" fill="#6357D2"/>
</svg>
