<svg width="25" height="25" viewBox="0 0 25 25" fill="none" xmlns="http://www.w3.org/2000/svg">
<path d="M21.7857 25C21.381 25 20.994 24.9229 20.625 24.7688C20.256 24.6147 19.9167 24.3836 19.6071 24.0754L11.6429 16.074C11.0952 16.2636 10.5476 16.4177 10 16.5363C9.45238 16.6548 8.89286 16.7141 8.32143 16.7141C6.01191 16.7141 4.04762 15.9139 2.42857 14.3137C0.809524 12.7134 0 10.7634 0 8.46373C0 7.72878 0.0952378 7.01162 0.285714 6.31223C0.47619 5.61285 0.75 4.95496 1.10714 4.33855L6.28571 9.49502L9.57143 6.4367L4.25 1.13798C4.86905 0.782361 5.52381 0.503793 6.21429 0.302276C6.90476 0.100759 7.60714 0 8.32143 0C10.6786 0 12.6845 0.82385 14.3393 2.47155C15.994 4.11925 16.8214 6.11664 16.8214 8.46373C16.8214 9.03272 16.7619 9.58985 16.6429 10.1351C16.5238 10.6804 16.369 11.2257 16.1786 11.771L24.0714 19.6302C24.381 19.9384 24.6131 20.2881 24.7679 20.6792C24.9226 21.0704 25 21.4794 25 21.9061C25 22.3329 24.9167 22.7418 24.75 23.133C24.5833 23.5242 24.3333 23.862 24 24.1465C23.6667 24.431 23.3155 24.6444 22.9464 24.7866C22.5774 24.9289 22.1905 25 21.7857 25Z" fill="#363636"/>
</svg>
