<svg width="15" height="10" viewBox="0 0 15 10" fill="none" xmlns="http://www.w3.org/2000/svg">
<path d="M1.06066 8.13183C0.474874 7.54604 0.474874 6.59629 1.06066 6.01051L5.48008 1.59109C6.35876 0.71241 7.78338 0.71241 8.66206 1.59109V1.59109C8.95495 1.88398 8.95495 2.35886 8.66206 2.65175L3.18198 8.13183C2.59619 8.71761 1.64645 8.71761 1.06066 8.13183V8.13183Z" fill="#8565E5"/>
<path d="M13.1317 8.13171C13.7175 7.54592 13.7175 6.59617 13.1317 6.01038L8.88908 1.76774C7.91277 0.791433 6.32986 0.791433 5.35355 1.76774L4.99999 2.1213L11.0104 8.13171C11.5962 8.71749 12.5459 8.71749 13.1317 8.13171V8.13171Z" fill="#8565E5"/>
</svg>
