<svg width="21" height="25" viewBox="0 0 21 25" fill="none" xmlns="http://www.w3.org/2000/svg">
<path fill-rule="evenodd" clip-rule="evenodd" d="M10.2951 0.00204126C12.1608 -0.0351233 14.0025 0.435788 15.6307 1.3663C17.2589 2.29681 18.6146 3.6533 19.5583 5.29613C20.5019 6.93897 20.9996 8.80878 21 10.7131V17.8566C21 18.567 20.7235 19.2485 20.2312 19.7509C19.739 20.2532 19.0711 20.5354 18.375 20.5354H15.75V24.1071C15.75 24.6001 15.3582 25 14.875 25H6.125C5.64175 25 5.25 24.6001 5.25 24.1071V19.9946C3.79557 19.1376 2.56132 17.9357 1.65376 16.4873C0.648512 14.8829 0.0803924 13.0341 0.00792493 11.1312C-0.0645566 9.22837 0.361215 7.34016 1.24141 5.661C2.12161 3.98184 3.42442 2.5724 5.01573 1.57775C6.60704 0.583104 8.42935 0.0392058 10.2951 0.00204126ZM4.47921 12.8736C3.42874 9.87279 4.59387 6.44241 7.39431 4.79245C10.1591 3.16349 13.5997 3.81092 15.632 6.16486C16.1467 6.76111 16.027 7.65129 15.4492 8.18395C13.268 10.1945 9.67776 12.7732 6.15153 13.7264C5.45459 13.9148 4.72176 13.5664 4.47921 12.8736Z" fill="#363636"/>
</svg>
