<svg width="360" height="16" viewBox="0 0 360 16" fill="none" xmlns="http://www.w3.org/2000/svg">
<path d="M0 8C0 3.58172 3.58172 0 8 0H352C356.418 0 360 3.58172 360 8C360 12.4183 356.418 16 352 16H8C3.58172 16 0 12.4183 0 8Z" fill="#EEEEEE"/>
<path d="M0 8C0 3.58172 3.58172 0 8 0H198C202.418 0 206 3.58172 206 8C206 12.4183 202.418 16 198 16H8C3.58172 16 0 12.4183 0 8Z" fill="#FF380D"/>
<path d="M219 8C219 10.7614 216.761 13 214 13C211.239 13 209 10.7614 209 8C209 5.23858 211.239 3 214 3C216.761 3 219 5.23858 219 8Z" fill="#FF380D"/>
<path d="M231 8C231 10.7614 228.761 13 226 13C223.239 13 221 10.7614 221 8C221 5.23858 223.239 3 226 3C228.761 3 231 5.23858 231 8Z" fill="#FF380D"/>
<path d="M240 7.5C240 9.433 238.433 11 236.5 11C234.567 11 233 9.433 233 7.5C233 5.567 234.567 4 236.5 4C238.433 4 240 5.567 240 7.5Z" fill="#FF380D"/>
<path d="M247 7.5C247 8.88071 245.881 10 244.5 10C243.119 10 242 8.88071 242 7.5C242 6.11929 243.119 5 244.5 5C245.881 5 247 6.11929 247 7.5Z" fill="#FF380D"/>
<path d="M252 7.5C252 8.32843 251.328 9 250.5 9C249.672 9 249 8.32843 249 7.5C249 6.67157 249.672 6 250.5 6C251.328 6 252 6.67157 252 7.5Z" fill="#FF380D"/>
</svg>
