<svg width="360" height="16" viewBox="0 0 360 16" fill="none" xmlns="http://www.w3.org/2000/svg">
<path d="M0 8C0 3.58172 3.58172 0 8 0H352C356.418 0 360 3.58172 360 8C360 12.4183 356.418 16 352 16H8C3.58172 16 0 12.4183 0 8Z" fill="#EEEEEE"/>
<path d="M0 8C0 3.58172 3.58172 0 8 0H223C227.418 0 231 3.58172 231 8C231 12.4183 227.418 16 223 16H8C3.58172 16 0 12.4183 0 8Z" fill="#0DA8FF"/>
<path d="M244 8C244 10.7614 241.761 13 239 13C236.239 13 234 10.7614 234 8C234 5.23858 236.239 3 239 3C241.761 3 244 5.23858 244 8Z" fill="#0DA8FF"/>
<path d="M256 8C256 10.7614 253.761 13 251 13C248.239 13 246 10.7614 246 8C246 5.23858 248.239 3 251 3C253.761 3 256 5.23858 256 8Z" fill="#0DA8FF"/>
<path d="M265 7.5C265 9.433 263.433 11 261.5 11C259.567 11 258 9.433 258 7.5C258 5.567 259.567 4 261.5 4C263.433 4 265 5.567 265 7.5Z" fill="#0DA8FF"/>
<path d="M272 7.5C272 8.88071 270.881 10 269.5 10C268.119 10 267 8.88071 267 7.5C267 6.11929 268.119 5 269.5 5C270.881 5 272 6.11929 272 7.5Z" fill="#0DA8FF"/>
<path d="M277 7.5C277 8.32843 276.328 9 275.5 9C274.672 9 274 8.32843 274 7.5C274 6.67157 274.672 6 275.5 6C276.328 6 277 6.67157 277 7.5Z" fill="#0DA8FF"/>
</svg>
