<svg width="360" height="16" viewBox="0 0 360 16" fill="none" xmlns="http://www.w3.org/2000/svg">
<path d="M0 8C0 3.58172 3.58172 0 8 0H352C356.418 0 360 3.58172 360 8C360 12.4183 356.418 16 352 16H8C3.58172 16 0 12.4183 0 8Z" fill="#EEEEEE"/>
<path d="M0 8C0 3.58172 3.58172 0 8 0H103C107.418 0 111 3.58172 111 8C111 12.4183 107.418 16 103 16H8C3.58172 16 0 12.4183 0 8Z" fill="#F0DB4F"/>
<path d="M123 8C123 10.7614 120.761 13 118 13C115.239 13 113 10.7614 113 8C113 5.23858 115.239 3 118 3C120.761 3 123 5.23858 123 8Z" fill="#F0DB4F"/>
<path d="M135 8C135 10.7614 132.761 13 130 13C127.239 13 125 10.7614 125 8C125 5.23858 127.239 3 130 3C132.761 3 135 5.23858 135 8Z" fill="#F0DB4F"/>
<path d="M144 7.5C144 9.433 142.433 11 140.5 11C138.567 11 137 9.433 137 7.5C137 5.567 138.567 4 140.5 4C142.433 4 144 5.567 144 7.5Z" fill="#F0DB4F"/>
<path d="M151 7.5C151 8.88071 149.881 10 148.5 10C147.119 10 146 8.88071 146 7.5C146 6.11929 147.119 5 148.5 5C149.881 5 151 6.11929 151 7.5Z" fill="#F0DB4F"/>
<path d="M156 7.5C156 8.32843 155.328 9 154.5 9C153.672 9 153 8.32843 153 7.5C153 6.67157 153.672 6 154.5 6C155.328 6 156 6.67157 156 7.5Z" fill="#F0DB4F"/>
</svg>
